<?xml version="1.0" standalone="no"?>
<!DOCTYPE svg PUBLIC "-//W3C//DTD SVG 20010904//EN"
 "http://www.w3.org/TR/2001/REC-SVG-20010904/DTD/svg10.dtd">
<svg version="1.0" xmlns="http://www.w3.org/2000/svg"
 width="700.000000pt" height="700.000000pt" viewBox="0 0 700.000000 700.000000"
 preserveAspectRatio="xMidYMid meet">
<metadata>
Created by potrace 1.14, written by Peter Selinger 2001-2017
</metadata>
<g transform="translate(0.000000,700.000000) scale(0.100000,-0.100000)"
fill="#000000" stroke="none">
<path d="M2800 6939 c-124 -15 -154 -21 -237 -48 -187 -62 -330 -150 -461
-283 -225 -230 -324 -513 -288 -827 l8 -63 -59 -57 c-111 -109 -170 -179 -258
-311 -160 -239 -283 -577 -313 -860 -13 -125 -6 -429 12 -458 2 -4 7 -29 10
-55 16 -118 124 -387 211 -523 121 -189 323 -412 495 -544 25 -19 47 -37 50
-41 7 -9 218 -151 265 -178 73 -43 100 -58 175 -97 41 -21 80 -45 87 -54 9
-11 12 -198 12 -766 0 -737 0 -751 21 -806 25 -68 85 -127 156 -154 47 -18 85
-19 784 -19 l735 0 47 23 c61 30 116 85 141 142 19 42 21 67 23 335 2 278 3
293 24 343 27 64 103 134 163 152 25 7 114 14 222 15 148 3 191 7 245 24 115
36 213 115 277 222 56 95 64 144 68 454 8 503 7 498 151 661 34 38 89 101 123
139 135 153 164 300 91 460 -19 42 -62 94 -185 230 -41 44 -82 89 -92 101 -10
12 -54 61 -99 110 -185 203 -224 250 -225 269 -8 213 -8 221 -35 355 -94 467
-424 864 -939 1130 -60 31 -136 67 -167 80 -58 23 -61 28 -74 99 -9 45 -47
146 -77 206 -100 196 -283 377 -481 477 -191 97 -418 140 -606 117z m240 -334
c111 -21 253 -84 340 -153 225 -177 321 -427 266 -690 -15 -70 -57 -182 -81
-212 -7 -8 -14 -20 -16 -25 -2 -6 -39 -72 -82 -147 -43 -75 -96 -175 -117
-221 -45 -96 -106 -271 -116 -334 -4 -24 -12 -44 -18 -44 -6 -1 -152 -2 -324
-3 -270 -1 -313 1 -316 14 -4 13 -18 75 -21 90 0 3 -11 38 -23 79 -40 126
-105 260 -249 511 -181 315 -196 530 -53 770 110 186 315 325 535 364 70 13
208 13 275 1z m1055 -959 c39 -21 79 -44 90 -50 50 -27 215 -150 266 -198 124
-117 212 -233 278 -365 39 -79 87 -217 97 -281 3 -19 8 -44 10 -56 3 -11 7
-82 10 -156 6 -162 17 -209 62 -269 27 -35 182 -211 212 -241 3 -3 50 -54 104
-115 54 -60 115 -128 136 -150 100 -108 130 -148 130 -168 0 -12 -18 -42 -40
-66 -23 -24 -53 -59 -68 -77 -15 -17 -59 -70 -98 -116 -82 -95 -123 -165 -153
-258 -34 -108 -34 -99 -45 -657 -3 -182 -3 -183 -31 -219 -47 -62 -85 -72
-264 -72 -156 0 -190 -3 -266 -23 -186 -49 -349 -208 -411 -401 -14 -42 -18
-106 -23 -318 l-6 -265 -622 -1 c-343 -1 -623 1 -624 5 -1 3 -2 326 -3 716 -1
391 -6 728 -10 750 -13 63 -65 153 -114 195 -24 22 -96 67 -161 101 -106 56
-144 79 -266 158 -99 64 -229 173 -336 280 -242 243 -367 466 -424 761 -20
104 -14 386 10 470 2 8 7 29 9 45 20 114 99 329 171 460 61 112 212 315 235
315 9 0 128 -207 188 -325 40 -82 94 -225 105 -281 5 -27 1 -34 -31 -59 -53
-40 -82 -79 -109 -147 -21 -52 -24 -75 -24 -175 1 -152 22 -219 91 -291 49
-51 142 -94 209 -96 l34 -1 3 -70 c8 -166 84 -283 233 -355 80 -40 151 -53
271 -53 288 0 496 167 501 403 1 71 5 77 48 78 86 4 186 62 236 137 45 69 57
131 53 268 -4 105 -8 130 -30 177 -29 62 -72 110 -129 142 -22 12 -39 29 -39
39 0 25 52 173 86 244 15 33 79 150 141 261 77 136 125 234 148 303 19 57 35
109 35 117 0 16 20 9 125 -50z m-665 -1256 l0 -56 -510 0 -509 0 -3 25 c-2 14
-1 40 1 58 l3 32 509 -1 509 -1 0 -57z m-339 -395 c11 -98 -30 -134 -156 -141
-129 -6 -186 23 -190 97 -1 24 -1 46 1 49 5 11 344 6 345 -5z"/>
</g>
</svg>
